<svg width="157" height="109" viewBox="0 0 157 109" fill="none" xmlns="http://www.w3.org/2000/svg">
<g clip-path="url(#clip0_921_1795)">
<g opacity="0.8">
<g opacity="0.5">
<path opacity="0.5" d="M84.1699 35.2423C77.3184 34.1952 70.8383 31.4308 65.3252 27.2034C57.0025 20.8782 39.5843 10.1158 22.9674 15.4741C0.0508749 22.8693 -0.0485773 44.2596 5.91852 55.8803C11.8856 67.5009 54.2236 101.527 109.104 96.1148C158.21 91.2714 167.78 35.8116 141.599 25.7759C118.867 17.0704 111.121 39.2503 84.1699 35.2423Z" fill="#F2F4F8"/>
</g>
<g opacity="0.5">
<path opacity="0.5" d="M154.871 29.3434C156.047 29.3434 157 28.3098 157 27.0348C157 25.7597 156.047 24.7261 154.871 24.7261C153.696 24.7261 152.743 25.7597 152.743 27.0348C152.743 28.3098 153.696 29.3434 154.871 29.3434Z" fill="#CED3E6"/>
</g>
<path opacity="0.8" d="M15.8413 11.8323C16.1579 11.7718 16.4855 11.8244 16.7677 11.9811C17.0499 12.1378 17.269 12.3887 17.387 12.6906C17.7792 13.7605 16.7505 14.9592 15.3696 14.4071C14.1762 13.546 14.6933 12.0469 15.8413 11.8323Z" fill="#CED3E6"/>
<path opacity="0.8" d="M151.806 6.86054C152.052 5.33852 151.026 3.90374 149.515 3.65586C148.003 3.40799 146.578 4.44088 146.332 5.9629C146.085 7.48491 147.111 8.91969 148.623 9.16757C150.135 9.41544 151.56 8.38255 151.806 6.86054Z" fill="#CED3E6"/>
<g opacity="0.8">
<path opacity="0.8" d="M24.2461 9.63242C24.3959 10.1702 24.3839 10.7407 24.2117 11.2717C24.0394 11.8027 23.7146 12.2703 23.2784 12.6153C22.8421 12.9604 22.314 13.1675 21.7609 13.2103C21.2077 13.2532 20.6543 13.1299 20.1708 12.856C19.6872 12.5822 19.2952 12.1701 19.0444 11.6719C18.7935 11.1737 18.695 10.6118 18.7614 10.0572C18.8277 9.50266 19.056 8.98037 19.4172 8.55644C19.7785 8.13251 20.2565 7.82598 20.7908 7.67562C21.1453 7.57509 21.516 7.54598 21.8817 7.58997C22.2474 7.63395 22.6009 7.75017 22.9219 7.93195C23.2428 8.11374 23.525 8.35752 23.7523 8.64932C23.9795 8.94112 24.1473 9.2752 24.2461 9.63242Z" fill="#CED3E6"/>
</g>
<path opacity="0.8" d="M135.123 93.6859C135.425 93.5671 135.759 93.5594 136.066 93.664C136.373 93.7687 136.634 93.979 136.802 94.2581C137.371 95.2365 136.598 96.6068 135.14 96.3379C133.802 95.6799 134.035 94.1093 135.123 93.6859Z" fill="#CED3E6"/>
<path opacity="0.8" d="M142.98 89.947C143.226 90.4467 143.319 91.0087 143.248 91.5619C143.177 92.1151 142.945 92.6347 142.581 93.055C142.216 93.4752 141.736 93.7773 141.201 93.923C140.667 94.0687 140.101 94.0515 139.576 93.8736C139.051 93.6956 138.59 93.3649 138.251 92.9232C137.913 92.4816 137.712 91.9488 137.674 91.3923C137.637 90.8358 137.764 90.2805 138.039 89.7966C138.315 89.3128 138.727 88.9221 139.223 88.6739C139.889 88.3417 140.659 88.2892 141.363 88.5279C142.067 88.7666 142.649 89.277 142.98 89.947Z" fill="#CED3E6"/>
<path opacity="0.8" d="M143.83 3.8535C144.773 3.8535 145.538 3.08372 145.538 2.13415C145.538 1.18457 144.773 0.414795 143.83 0.414795C142.887 0.414795 142.122 1.18457 142.122 2.13415C142.122 3.08372 142.887 3.8535 143.83 3.8535Z" fill="#CED3E6"/>
</g>
<g opacity="0.8">
<path opacity="0.8" d="M150.081 33.2598C150.081 17.9115 137.385 1.09278 121.589 0.0743317C121.305 0.0543059 121.021 0.0400024 120.737 0.0256983C98.0875 -1.03567 96.3627 26.7743 75.8728 29.9127C55.3829 33.051 39.7321 17.2135 15.213 27.5439C-6.79419 36.833 -12.7584 88.9628 51.9419 91.054C103.708 92.7276 150.089 79.0529 150.081 33.2598Z" fill="#DBE2EA"/>
</g>
<path d="M94.4705 96.4209C122.045 96.4209 144.398 95.2604 144.398 93.829C144.398 92.3975 122.045 91.2371 94.4705 91.2371C66.8963 91.2371 44.543 92.3975 44.543 93.829C44.543 95.2604 66.8963 96.4209 94.4705 96.4209Z" fill="#CED3E6"/>
<path d="M81.4141 88.3936L105.43 86.4568L105.436 83.6274H81.4453L81.4141 88.3936Z" fill="#F2F4F8"/>
<path d="M65.007 86.3926H122.212C123.41 86.3941 124.559 86.8746 125.407 87.7286C126.254 88.5825 126.73 89.7401 126.73 90.947V93.6362H60.4834V90.947C60.4834 89.7391 60.96 88.5807 61.8083 87.7265C62.6567 86.8724 63.8073 86.3926 65.007 86.3926Z" fill="#152A4E"/>
<path d="M64.3702 86H119.635C120.793 86.0017 121.904 86.5324 122.722 87.4755C123.54 88.4186 124 89.6971 124 91.03V94H60V91.03C60 89.696 60.4604 88.4166 61.28 87.4733C62.0996 86.53 63.2112 86 64.3702 86Z" fill="#1F3965"/>
<path d="M144.847 16.2952H42.3037C40.532 16.2952 39.0957 17.7412 39.0957 19.525V80.4004C39.0957 82.1842 40.532 83.6302 42.3037 83.6302H144.847C146.619 83.6302 148.055 82.1842 148.055 80.4004V19.525C148.055 17.7412 146.619 16.2952 144.847 16.2952Z" fill="#CED3E6"/>
<path d="M148.055 19.525V75.8974H138.136V16.2952H144.847C145.698 16.2952 146.514 16.6355 147.116 17.2412C147.717 17.8469 148.055 18.6684 148.055 19.525Z" fill="#152A4E"/>
<path d="M143.977 19.525V80.4004C143.977 81.2572 143.638 82.0788 143.036 82.6844C142.434 83.29 141.618 83.6302 140.767 83.6302H42.3037C41.4531 83.6295 40.6376 83.2889 40.0361 82.6834C39.4347 82.0778 39.0965 81.2568 39.0957 80.4004V19.525C39.0965 18.6686 39.4347 17.8476 40.0361 17.242C40.6376 16.6365 41.4531 16.2959 42.3037 16.2952H140.903H141.008H141.085H141.207H141.289H141.326H141.406C142.142 16.4461 142.802 16.8519 143.272 17.4419C143.742 18.0319 143.991 18.769 143.977 19.525Z" fill="#F2F4F8"/>
<path d="M141.415 16.3611H141.335H141.298H141.216H141.094H141.017H140.912H42.3125C41.4619 16.3618 40.6464 16.7024 40.0449 17.3079C39.4435 17.9135 39.1052 18.7346 39.1045 19.5909V75.8975H143.978V19.5395C143.98 18.7934 143.726 18.0695 143.259 17.4903C142.792 16.911 142.14 16.5121 141.415 16.3611ZM139.818 70.2675C139.818 70.383 139.795 70.4975 139.751 70.6042C139.707 70.711 139.643 70.8079 139.561 70.8895C139.48 70.9711 139.383 71.0357 139.277 71.0797C139.171 71.1237 139.057 71.1461 138.943 71.1457H44.1367C44.0221 71.1461 43.9085 71.1237 43.8025 71.0796C43.6965 71.0356 43.6002 70.971 43.5191 70.8893C43.438 70.8077 43.3738 70.7107 43.3301 70.604C43.2863 70.4973 43.264 70.3829 43.2644 70.2675V21.3618C43.264 21.2463 43.2863 21.132 43.3301 21.0252C43.3738 20.9185 43.438 20.8215 43.5191 20.7399C43.6002 20.6583 43.6965 20.5936 43.8025 20.5496C43.9085 20.5056 44.0221 20.4831 44.1367 20.4835H138.943C139.057 20.4831 139.171 20.5056 139.277 20.5496C139.383 20.5935 139.48 20.6582 139.561 20.7397C139.643 20.8213 139.707 20.9183 139.751 21.025C139.795 21.1318 139.818 21.2462 139.818 21.3618V70.2675Z" fill="#1F3965"/>
<path d="M138.943 20.4834H44.1282C43.6464 20.4834 43.2559 20.8766 43.2559 21.3617V70.2673C43.2559 70.7524 43.6464 71.1456 44.1282 71.1456H138.943C139.424 71.1456 139.815 70.7524 139.815 70.2673V21.3617C139.815 20.8766 139.424 20.4834 138.943 20.4834Z" fill="#DBE2EA"/>
<path d="M139.818 21.3617V25.9762H43.2559V21.3617C43.2555 21.2462 43.2778 21.1319 43.3215 21.0251C43.3652 20.9184 43.4295 20.8214 43.5105 20.7398C43.5916 20.6582 43.6879 20.5935 43.7939 20.5495C43.8999 20.5055 44.0135 20.483 44.1282 20.4834H138.943C139.057 20.483 139.171 20.5055 139.277 20.5494C139.383 20.5934 139.48 20.658 139.561 20.7396C139.643 20.8212 139.707 20.9182 139.751 21.0249C139.795 21.1317 139.818 21.2461 139.818 21.3617Z" fill="white"/>
<path d="M132.336 23.1554C132.336 23.303 132.292 23.4474 132.211 23.5702C132.129 23.693 132.013 23.7887 131.878 23.8452C131.742 23.9017 131.593 23.9165 131.449 23.8877C131.306 23.8589 131.173 23.7878 131.07 23.6833C130.966 23.5789 130.895 23.4459 130.867 23.301C130.838 23.1562 130.853 23.0061 130.909 22.8696C130.965 22.7332 131.06 22.6166 131.182 22.5345C131.304 22.4525 131.447 22.4087 131.594 22.4087C131.692 22.4087 131.788 22.428 131.878 22.4655C131.968 22.5031 132.05 22.5581 132.119 22.6274C132.187 22.6967 132.242 22.779 132.279 22.8696C132.317 22.9602 132.336 23.0573 132.336 23.1554Z" fill="#DF615C"/>
<path d="M133.998 23.902C134.408 23.902 134.74 23.5677 134.74 23.1554C134.74 22.743 134.408 22.4087 133.998 22.4087C133.589 22.4087 133.257 22.743 133.257 23.1554C133.257 23.5677 133.589 23.902 133.998 23.902Z" fill="#5392F3"/>
<path d="M127.815 22.366H52.3799C51.9986 22.366 51.6895 22.6772 51.6895 23.0611V23.25C51.6895 23.6339 51.9986 23.9451 52.3799 23.9451H127.815C128.197 23.9451 128.506 23.6339 128.506 23.25V23.0611C128.506 22.6772 128.197 22.366 127.815 22.366Z" fill="#DBE2EA"/>
<path d="M46.7419 23.1555V23.8879C46.7422 23.9114 46.7363 23.9347 46.7248 23.9552C46.7132 23.9756 46.6963 23.9926 46.676 24.0043C46.6557 24.016 46.6326 24.022 46.6092 24.0216C46.5858 24.0213 46.5629 24.0146 46.543 24.0023L45.9121 23.639L45.2728 23.2728C45.2528 23.2609 45.2362 23.244 45.2246 23.2237C45.2131 23.2033 45.207 23.1803 45.207 23.1569C45.207 23.1335 45.2131 23.1105 45.2246 23.0902C45.2362 23.0699 45.2528 23.053 45.2728 23.0411L45.9008 22.6749L46.5316 22.3087C46.5519 22.2972 46.5749 22.2913 46.5982 22.2915C46.6215 22.2917 46.6443 22.2981 46.6644 22.3099C46.6845 22.3218 46.7012 22.3388 46.7128 22.3591C46.7244 22.3795 46.7305 22.4025 46.7305 22.426L46.7419 23.1555Z" fill="black"/>
<path d="M47.8477 23.1555V23.8879C47.8473 23.9114 47.8532 23.9347 47.8648 23.9552C47.8764 23.9756 47.8932 23.9926 47.9135 24.0043C47.9338 24.016 47.9569 24.022 47.9803 24.0216C48.0037 24.0213 48.0266 24.0146 48.0466 24.0023L48.6745 23.639L49.3054 23.2728C49.3254 23.2609 49.342 23.244 49.3535 23.2237C49.3651 23.2033 49.3711 23.1803 49.3711 23.1569C49.3711 23.1335 49.3651 23.1105 49.3535 23.0902C49.342 23.0699 49.3254 23.053 49.3054 23.0411L48.6831 22.6749L48.0551 22.3087C48.0348 22.2972 48.0118 22.2913 47.9885 22.2915C47.9652 22.2917 47.9424 22.2981 47.9222 22.3099C47.9021 22.3218 47.8855 22.3388 47.8739 22.3591C47.8623 22.3795 47.8562 22.4025 47.8562 22.426L47.8477 23.1555Z" fill="black"/>
<path d="M136.703 22.4764L135.705 23.4818C135.633 23.5544 135.633 23.6721 135.705 23.7448L135.739 23.7792C135.811 23.8518 135.928 23.8518 136 23.7792L136.999 22.7738C137.071 22.7012 137.071 22.5834 136.999 22.5108L136.965 22.4764C136.892 22.4038 136.776 22.4038 136.703 22.4764Z" fill="#39393B"/>
<path d="M135.741 22.4784L135.707 22.5128C135.635 22.5854 135.635 22.7032 135.707 22.7758L136.705 23.7812C136.777 23.8538 136.894 23.8538 136.967 23.7812L137.001 23.7468C137.073 23.6742 137.073 23.5564 137.001 23.4838L136.002 22.4784C135.93 22.4058 135.813 22.4058 135.741 22.4784Z" fill="#39393B"/>
<path d="M126.821 27.092H55.9971C54.9896 27.092 54.1729 27.9143 54.1729 28.9287V67.3437C54.1729 68.3581 54.9896 69.1804 55.9971 69.1804H126.821C127.828 69.1804 128.645 68.3581 128.645 67.3437V28.9287C128.645 27.9143 127.828 27.092 126.821 27.092Z" fill="white"/>
<path d="M95.4197 54H74.5803C74.5041 54 74.4286 53.987 74.3582 53.9618C74.2878 53.9366 74.2239 53.8997 74.17 53.8531C74.1161 53.8065 74.0733 53.7512 74.0442 53.6904C74.015 53.6295 74 53.5643 74 53.4984C74.001 53.366 74.0625 53.2392 74.1712 53.1458C74.28 53.0524 74.427 53 74.5803 53H95.4197C95.573 53 95.72 53.0524 95.8288 53.1458C95.9375 53.2392 95.999 53.366 96 53.4984C96 53.6315 95.9389 53.759 95.83 53.8531C95.7212 53.9472 95.5736 54 95.4197 54Z" fill="#CED3E6"/>
<path d="M95.4197 50H74.5803C74.427 50 74.28 49.9476 74.1712 49.8542C74.0625 49.7608 74.001 49.634 74 49.5016C74 49.4357 74.015 49.3705 74.0442 49.3096C74.0733 49.2488 74.1161 49.1935 74.17 49.1469C74.2239 49.1003 74.2878 49.0634 74.3582 49.0382C74.4286 49.013 74.5041 49 74.5803 49H95.4197C95.5736 49 95.7212 49.0528 95.83 49.1469C95.9389 49.241 96 49.3685 96 49.5016C95.999 49.634 95.9375 49.7608 95.8288 49.8542C95.72 49.9476 95.573 50 95.4197 50Z" fill="#CED3E6"/>
<path d="M95.4197 58H74.5803C74.5041 58 74.4286 57.9871 74.3582 57.9619C74.2878 57.9368 74.2239 57.9 74.17 57.8536C74.1161 57.8071 74.0733 57.752 74.0442 57.6913C74.015 57.6307 74 57.5657 74 57.5C74 57.4343 74.015 57.3693 74.0442 57.3087C74.0733 57.248 74.1161 57.1929 74.17 57.1464C74.2239 57.1 74.2878 57.0632 74.3582 57.0381C74.4286 57.0129 74.5041 57 74.5803 57H95.4197C95.5736 57 95.7212 57.0527 95.83 57.1464C95.9389 57.2402 96 57.3674 96 57.5C96 57.6326 95.9389 57.7598 95.83 57.8536C95.7212 57.9473 95.5736 58 95.4197 58Z" fill="#CED3E6"/>
<path d="M101.782 41.7776H85.4518C85.3922 41.7776 85.3333 41.7657 85.2783 41.7427C85.2233 41.7197 85.1733 41.6859 85.1313 41.6434C85.0893 41.6008 85.0561 41.5503 85.0336 41.4948C85.011 41.4393 84.9996 41.3798 85 41.3199C85 41.1992 85.0476 41.0835 85.1323 40.9982C85.2171 40.9129 85.332 40.865 85.4518 40.865H101.782C101.902 40.865 102.017 40.9129 102.101 40.9982C102.186 41.0835 102.234 41.1992 102.234 41.3199C102.234 41.3798 102.223 41.4393 102.2 41.4948C102.177 41.5503 102.144 41.6008 102.102 41.6434C102.06 41.6859 102.01 41.7197 101.955 41.7427C101.9 41.7657 101.841 41.7776 101.782 41.7776Z" fill="#CED3E6"/>
<path d="M101.782 37.9126H85.4518C85.332 37.9126 85.2171 37.8647 85.1323 37.7794C85.0476 37.6941 85 37.5784 85 37.4577C85 37.3368 85.0475 37.2208 85.1322 37.1351C85.2168 37.0493 85.3317 37.0008 85.4518 37H101.782C101.902 37.0008 102.017 37.0493 102.101 37.1351C102.186 37.2208 102.234 37.3368 102.234 37.4577C102.234 37.5784 102.186 37.6941 102.101 37.7794C102.017 37.8647 101.902 37.9126 101.782 37.9126Z" fill="#CED3E6"/>
<path d="M101.782 45.6425H85.4518C85.3317 45.6418 85.2168 45.5932 85.1322 45.5074C85.0475 45.4217 85 45.3057 85 45.1848C85 45.0639 85.0475 44.9479 85.1322 44.8621C85.2168 44.7764 85.3317 44.7278 85.4518 44.7271H101.782C101.902 44.7278 102.017 44.7764 102.101 44.8621C102.186 44.9479 102.234 45.0639 102.234 45.1848C102.234 45.3057 102.186 45.4217 102.101 45.5074C102.017 45.5932 101.902 45.6418 101.782 45.6425Z" fill="#CED3E6"/>
<path d="M121.328 65.0635V64.5114H122.016V64.0107H121.084C121.019 64.0107 120.956 64.037 120.909 64.0836C120.863 64.1303 120.837 64.1936 120.837 64.2596V65.0578L121.328 65.0635Z" fill="white"/>
<path d="M121.328 66.0505H120.837V66.8945C120.838 66.96 120.864 67.0226 120.91 67.0686C120.957 67.1147 121.019 67.1405 121.084 67.1405H122.016V66.6484H121.328V66.0505Z" fill="white"/>
<path d="M123.45 65.0635H123.939V64.2654C123.94 64.2327 123.934 64.2002 123.923 64.1697C123.911 64.1392 123.893 64.1113 123.871 64.0877C123.848 64.064 123.822 64.0451 123.792 64.0319C123.762 64.0187 123.73 64.0115 123.698 64.0107H122.8V64.5057H123.453L123.45 65.0635Z" fill="white"/>
<path d="M123.45 66.0505V66.6484H122.797V67.1405H123.698C123.762 67.1398 123.824 67.1136 123.87 67.0676C123.915 67.0216 123.941 66.9595 123.942 66.8945V66.0505H123.45Z" fill="white"/>
<path d="M58.5088 65.6844V64.1282L59.85 64.9063L61.1883 65.6844L59.85 66.4626L58.5088 67.2436V65.6844Z" fill="white"/>
<path d="M65.9367 64.2854H65.5844C65.4526 64.2854 65.3457 64.393 65.3457 64.5257V66.8802C65.3457 67.0129 65.4526 67.1205 65.5844 67.1205H65.9367C66.0686 67.1205 66.1754 67.0129 66.1754 66.8802V64.5257C66.1754 64.393 66.0686 64.2854 65.9367 64.2854Z" fill="white"/>
<path d="M67.6701 64.2854H67.3178C67.186 64.2854 67.0791 64.393 67.0791 64.5257V66.8802C67.0791 67.0129 67.186 67.1205 67.3178 67.1205H67.6701C67.8019 67.1205 67.9088 67.0129 67.9088 66.8802V64.5257C67.9088 64.393 67.8019 64.2854 67.6701 64.2854Z" fill="white"/>
<g opacity="0.8">
<path opacity="0.8" d="M82.9257 65.4707C83.0325 65.8543 83.024 66.2611 82.9012 66.6397C82.7783 67.0184 82.5467 67.3518 82.2356 67.5979C81.9245 67.844 81.5479 67.9917 81.1534 68.0222C80.7589 68.0528 80.3643 67.9649 80.0195 67.7696C79.6746 67.5743 79.3951 67.2804 79.2162 66.9251C79.0373 66.5699 78.967 66.1691 79.0144 65.7737C79.0617 65.3782 79.2245 65.0057 79.4821 64.7034C79.7397 64.4011 80.0806 64.1825 80.4616 64.0753C80.7144 64.0036 80.9788 63.9828 81.2396 64.0142C81.5004 64.0456 81.7524 64.1284 81.9813 64.2581C82.2103 64.3877 82.4115 64.5616 82.5735 64.7696C82.7356 64.9777 82.8553 65.216 82.9257 65.4707Z" fill="#CED3E6"/>
</g>
<g opacity="0.8">
<path opacity="0.8" d="M88.9257 65.4707C89.0325 65.8543 89.024 66.2611 88.9012 66.6397C88.7783 67.0184 88.5467 67.3518 88.2356 67.5979C87.9245 67.844 87.5479 67.9917 87.1534 68.0222C86.7589 68.0528 86.3643 67.9649 86.0195 67.7696C85.6746 67.5743 85.3951 67.2804 85.2162 66.9251C85.0373 66.5699 84.967 66.1691 85.0144 65.7737C85.0617 65.3782 85.2245 65.0057 85.4821 64.7034C85.7397 64.4011 86.0806 64.1825 86.4616 64.0753C86.7144 64.0036 86.9788 63.9828 87.2396 64.0142C87.5004 64.0456 87.7524 64.1284 87.9813 64.2581C88.2103 64.3877 88.4115 64.5616 88.5735 64.7696C88.7356 64.9777 88.8553 65.216 88.9257 65.4707Z" fill="#CED3E6"/>
</g>
<path d="M61.4355 29H62.288V30.8538H63.4246V31.5175H61.4583L61.4355 29Z" fill="#39393B"/>
<path d="M63.6318 29H64.4843V31.5175H63.6318V29Z" fill="#39393B"/>
<path d="M67.5474 29L66.4875 31.5175H65.6606L64.6064 29.0086H65.5129L66.1067 30.4762L66.7148 29.0086L67.5474 29Z" fill="#39393B"/>
<path d="M69.6954 30.871V31.5175H67.6211V29H69.6471V29.638H68.448V29.924H69.5022V30.5334H68.448V30.8624L69.6954 30.871Z" fill="#39393B"/>
<path d="M60.0516 30.2359C60.0516 30.4403 59.9913 30.6401 59.8785 30.8099C59.7657 30.9798 59.6053 31.1122 59.4177 31.1903C59.2301 31.2684 59.0237 31.2887 58.8246 31.2486C58.6256 31.2085 58.4428 31.1099 58.2994 30.9651C58.1561 30.8204 58.0586 30.6361 58.0194 30.4356C57.9801 30.2351 58.0008 30.0273 58.0789 29.8387C58.157 29.65 58.2889 29.4889 58.458 29.3758C58.627 29.2627 58.8256 29.2026 59.0286 29.2031C59.1632 29.2031 59.2965 29.2299 59.4207 29.2818C59.545 29.3337 59.6579 29.4098 59.753 29.5058C59.848 29.6017 59.9233 29.7156 59.9745 29.8409C60.0258 29.9662 60.0519 30.1004 60.0516 30.2359Z" fill="#DF615C"/>
<path d="M122.914 31.3371C122.914 31.9093 122.374 32.2812 121.598 32.2812C120.822 32.2812 120.285 31.9093 120.285 31.3371C120.285 31.1988 120.321 31.063 120.391 30.9437C120.46 30.8245 120.56 30.7262 120.68 30.6591C120.592 30.5925 120.52 30.5061 120.471 30.4068C120.422 30.3075 120.396 30.198 120.396 30.0869C120.396 29.552 120.893 29.2058 121.604 29.2058C122.314 29.2058 122.814 29.552 122.814 30.0869C122.814 30.198 122.788 30.3075 122.739 30.4068C122.69 30.5061 122.618 30.5925 122.53 30.6591C122.648 30.7277 122.746 30.8266 122.813 30.9458C122.88 31.0649 122.915 31.2 122.914 31.3371ZM121.922 31.3028C121.925 31.2377 121.909 31.173 121.876 31.1172C121.842 31.0613 121.793 31.0169 121.734 30.9895C121.675 30.9622 121.61 30.9532 121.546 30.9638C121.482 30.9744 121.423 31.004 121.376 31.0489C121.329 31.0937 121.296 31.1517 121.282 31.2154C121.268 31.2791 121.273 31.3455 121.297 31.4061C121.321 31.4667 121.363 31.5187 121.416 31.5554C121.47 31.592 121.533 31.6117 121.598 31.6117C121.641 31.6183 121.686 31.6146 121.728 31.601C121.77 31.5873 121.808 31.564 121.839 31.5329C121.871 31.5018 121.895 31.4638 121.909 31.4219C121.923 31.38 121.928 31.3353 121.922 31.2913V31.3028ZM121.354 30.1213C121.357 30.1675 121.374 30.2117 121.402 30.2485C121.43 30.2852 121.468 30.313 121.511 30.3283C121.554 30.3435 121.601 30.3457 121.646 30.3344C121.691 30.3232 121.731 30.2991 121.762 30.265C121.793 30.2309 121.814 30.1884 121.821 30.1427C121.829 30.097 121.823 30.0501 121.804 30.0077C121.786 29.9654 121.755 29.9295 121.716 29.9044C121.678 29.8793 121.633 29.8662 121.587 29.8667C121.556 29.8674 121.526 29.8743 121.498 29.887C121.47 29.8997 121.445 29.918 121.424 29.9407C121.404 29.9634 121.388 29.9901 121.377 30.0192C121.367 30.0482 121.363 30.0791 121.365 30.1098L121.354 30.1213Z" fill="#39393B"/>
<path d="M123.104 30.7278C123.104 29.7494 123.659 29.1858 124.431 29.1858C125.204 29.1858 125.758 29.758 125.758 30.7278C125.758 31.6976 125.204 32.2698 124.431 32.2698C123.659 32.2698 123.104 31.7033 123.104 30.7278ZM124.767 30.7278C124.767 30.1556 124.625 29.9811 124.431 29.9811C124.238 29.9811 124.096 30.1585 124.096 30.7278C124.096 31.2971 124.238 31.4716 124.431 31.4716C124.625 31.4716 124.758 31.2971 124.758 30.7278H124.767Z" fill="#39393B"/>
<path d="M118.557 29.9069C118.557 30.0863 118.505 30.2616 118.406 30.4107C118.307 30.5599 118.166 30.6761 118.001 30.7447C117.837 30.8134 117.656 30.8313 117.481 30.7963C117.306 30.7614 117.146 30.675 117.02 30.5482C116.894 30.4213 116.808 30.2597 116.773 30.0838C116.738 29.9079 116.756 29.7255 116.824 29.5598C116.893 29.3941 117.008 29.2525 117.156 29.1528C117.304 29.0532 117.478 29 117.657 29C117.895 29 118.125 29.0955 118.294 29.2656C118.462 29.4357 118.557 29.6664 118.557 29.9069Z" fill="#DF615C"/>
<path d="M119.353 32.1956H116C116.136 31.8685 116.368 31.5908 116.664 31.3988C116.96 31.2068 117.307 31.1096 117.659 31.1199H117.705C118.055 31.1119 118.4 31.2102 118.694 31.4021C118.987 31.5939 119.217 31.8704 119.353 32.1956Z" fill="#DF615C"/>
<path d="M41.3467 21.9854C45.6027 21.9854 49.0528 18.5553 49.0528 14.3241C49.0528 10.0929 45.6027 6.66284 41.3467 6.66284C37.0908 6.66284 33.6406 10.0929 33.6406 14.3241C33.6406 18.5553 37.0908 21.9854 41.3467 21.9854Z" fill="#CED3E6"/>
<path d="M41.3467 20.9868C45.6027 20.9868 49.0528 17.5568 49.0528 13.3256C49.0528 9.09437 45.6027 5.66431 41.3467 5.66431C37.0908 5.66431 33.6406 9.09437 33.6406 13.3256C33.6406 17.5568 37.0908 20.9868 41.3467 20.9868Z" fill="#1DA1F2"/>
<path d="M41.3466 19.5537C44.8053 19.5537 47.6092 16.7653 47.6092 13.3257C47.6092 9.88603 44.8053 7.09766 41.3466 7.09766C37.8878 7.09766 35.084 9.88603 35.084 13.3257C35.084 16.7653 37.8878 19.5537 41.3466 19.5537Z" fill="white"/>
<path d="M47.6088 13.3257C47.6088 13.4917 47.6088 13.6576 47.5917 13.8178C47.4662 12.2353 46.7532 10.7585 45.5947 9.68148C44.4362 8.60451 42.9173 8.00646 41.3405 8.00646C39.7637 8.00646 38.2447 8.60451 37.0862 9.68148C35.9277 10.7585 35.2147 12.2353 35.0892 13.8178C35.075 13.6576 35.0693 13.4917 35.0693 13.3257C35.0693 11.6535 35.7291 10.0497 36.9036 8.86727C38.0781 7.68481 39.671 7.02051 41.3319 7.02051C42.9929 7.02051 44.5858 7.68481 45.7603 8.86727C46.9347 10.0497 47.5946 11.6535 47.5946 13.3257H47.6088Z" fill="#CED3E6"/>
<path d="M41.3467 13.975C41.3224 13.9752 41.2984 13.9696 41.2767 13.9587C41.2549 13.9478 41.2361 13.9318 41.2217 13.9121L38.1472 9.79821C38.1351 9.78173 38.1264 9.763 38.1216 9.74311C38.1167 9.72321 38.1159 9.70254 38.1191 9.68231C38.1222 9.66208 38.1294 9.64268 38.1401 9.62525C38.1508 9.60782 38.1648 9.59271 38.1813 9.58078C38.1977 9.56839 38.2164 9.55937 38.2363 9.55424C38.2562 9.54911 38.2769 9.54798 38.2972 9.5509C38.3175 9.55382 38.337 9.56074 38.3547 9.57127C38.3724 9.5818 38.3878 9.59572 38.4001 9.61225L41.3979 13.6174L44.8076 12.1298C44.8458 12.1133 44.8888 12.1124 44.9275 12.1273C44.9663 12.1423 44.9977 12.1719 45.0151 12.2099C45.0235 12.2286 45.0282 12.2489 45.0287 12.2695C45.0293 12.2901 45.0258 12.3105 45.0184 12.3297C45.0109 12.3489 44.9998 12.3664 44.9856 12.3812C44.9713 12.396 44.9543 12.4078 44.9355 12.4159L41.4121 13.9521C41.3923 13.9647 41.3699 13.9725 41.3467 13.975Z" fill="#39393B"/>
<rect x="56" y="33" width="4" height="33" fill="#F2F4F8"/>
<rect x="108" y="33" width="19" height="33" fill="#F2F4F8"/>
<rect x="82" y="84" width="23" height="1" fill="#CED3E6"/>
</g>
<defs>
<clipPath id="clip0_921_1795">
<rect width="157" height="109" fill="white"/>
</clipPath>
</defs>
</svg>
