<svg width="20" height="20" viewBox="0 0 20 20" fill="none" xmlns="http://www.w3.org/2000/svg">
<path d="M9.99989 0.370122C8.09568 0.3721 6.2348 0.93857 4.65247 1.99793C3.07014 3.05729 1.8374 4.56198 1.11006 6.3218C0.382722 8.08163 0.193442 10.0176 0.566146 11.885C0.93885 13.7523 1.85681 15.4673 3.20398 16.8131C4.55116 18.1589 6.26708 19.075 8.13484 19.4458C10.0026 19.8166 11.9384 19.6253 13.6974 18.8961C15.4565 18.167 16.9599 16.9327 18.0176 15.3492C19.0753 13.7658 19.6399 11.9043 19.6399 10.0001C19.6399 8.73465 19.3905 7.48159 18.9059 6.31257C18.4213 5.14355 17.7111 4.08151 16.8158 3.18715C15.9205 2.29279 14.8577 1.58365 13.6882 1.10029C12.5187 0.616926 11.2654 0.368808 9.99989 0.370122V0.370122ZM10.7999 14.3701C10.7999 14.4752 10.7792 14.5792 10.739 14.6763C10.6988 14.7733 10.6399 14.8615 10.5656 14.9358C10.4913 15.0101 10.4031 15.069 10.306 15.1092C10.209 15.1494 10.1049 15.1701 9.99989 15.1701C9.89483 15.1701 9.7908 15.1494 9.69374 15.1092C9.59668 15.069 9.50849 15.0101 9.4342 14.9358C9.35992 14.8615 9.30099 14.7733 9.26078 14.6763C9.22058 14.5792 9.19989 14.4752 9.19989 14.3701V9.27012C9.19989 9.16507 9.22058 9.06104 9.26078 8.96397C9.30099 8.86691 9.35992 8.77872 9.4342 8.70444C9.50849 8.63015 9.59668 8.57122 9.69374 8.53102C9.7908 8.49081 9.89483 8.47012 9.99989 8.47012C10.1049 8.47012 10.209 8.49081 10.306 8.53102C10.4031 8.57122 10.4913 8.63015 10.5656 8.70444C10.6399 8.77872 10.6988 8.86691 10.739 8.96397C10.7792 9.06104 10.7999 9.16507 10.7999 9.27012V14.3701ZM9.99989 7.65012C9.83531 7.65011 9.67444 7.60117 9.53774 7.50952C9.40104 7.41787 9.29467 7.28764 9.23216 7.1354C9.16964 6.98315 9.1538 6.81576 9.18664 6.65448C9.21949 6.49321 9.29954 6.34535 9.41662 6.22968C9.5337 6.11401 9.68252 6.03576 9.84418 6.00487C10.0058 5.97398 10.173 5.99185 10.3245 6.05621C10.476 6.12057 10.6049 6.2285 10.6949 6.36631C10.7849 6.50411 10.8319 6.66555 10.8299 6.83012C10.8273 7.04851 10.7386 7.25707 10.5833 7.41057C10.4279 7.56407 10.2183 7.65014 9.99989 7.65012V7.65012Z" fill="#F7F9FC"/>
</svg>
