<svg width="119" height="40" viewBox="0 0 119 40" fill="none" xmlns="http://www.w3.org/2000/svg">
<path d="M13.7008 3.29997H8.46879V18H5.24079V3.29997H0.00878906V0.647968H13.7008V3.29997Z" fill="#1F3965"/>
<path d="M20.5526 10.428C20.5526 10.044 20.4966 9.68397 20.3846 9.34797C20.2806 9.00397 20.1206 8.70397 19.9046 8.44797C19.6886 8.19197 19.4126 7.99197 19.0766 7.84797C18.7486 7.69597 18.3646 7.61997 17.9246 7.61997C17.0686 7.61997 16.3926 7.86397 15.8966 8.35197C15.4086 8.83997 15.0966 9.53197 14.9606 10.428H20.5526ZM14.9006 12.216C14.9486 12.848 15.0606 13.396 15.2366 13.86C15.4126 14.316 15.6446 14.696 15.9326 15C16.2206 15.296 16.5606 15.52 16.9526 15.672C17.3526 15.816 17.7926 15.888 18.2726 15.888C18.7526 15.888 19.1646 15.832 19.5086 15.72C19.8606 15.608 20.1646 15.484 20.4206 15.348C20.6846 15.212 20.9126 15.088 21.1046 14.976C21.3046 14.864 21.4966 14.808 21.6806 14.808C21.9286 14.808 22.1126 14.9 22.2326 15.084L23.0846 16.164C22.7566 16.548 22.3886 16.872 21.9806 17.136C21.5726 17.392 21.1446 17.6 20.6966 17.76C20.2566 17.912 19.8046 18.02 19.3406 18.084C18.8846 18.148 18.4406 18.18 18.0086 18.18C17.1526 18.18 16.3566 18.04 15.6206 17.76C14.8846 17.472 14.2446 17.052 13.7006 16.5C13.1566 15.94 12.7286 15.252 12.4166 14.436C12.1046 13.612 11.9486 12.66 11.9486 11.58C11.9486 10.74 12.0846 9.95197 12.3566 9.21597C12.6286 8.47197 13.0166 7.82797 13.5206 7.28397C14.0326 6.73197 14.6526 6.29597 15.3806 5.97597C16.1166 5.65597 16.9446 5.49597 17.8646 5.49597C18.6406 5.49597 19.3566 5.61997 20.0126 5.86797C20.6686 6.11597 21.2326 6.47997 21.7046 6.95997C22.1766 7.43197 22.5446 8.01597 22.8086 8.71197C23.0806 9.39997 23.2166 10.188 23.2166 11.076C23.2166 11.524 23.1686 11.828 23.0726 11.988C22.9766 12.14 22.7926 12.216 22.5206 12.216H14.9006Z" fill="#1F3965"/>
<path d="M31.9449 12.744C31.0889 12.784 30.3689 12.86 29.7849 12.972C29.2009 13.076 28.7329 13.212 28.3809 13.38C28.0289 13.548 27.7769 13.744 27.6249 13.968C27.4729 14.192 27.3969 14.436 27.3969 14.7C27.3969 15.22 27.5489 15.592 27.8529 15.816C28.1649 16.04 28.5689 16.152 29.0649 16.152C29.6729 16.152 30.1969 16.044 30.6369 15.828C31.0849 15.604 31.5209 15.268 31.9449 14.82V12.744ZM25.1529 7.40397C26.5689 6.10797 28.2729 5.45997 30.2649 5.45997C30.9849 5.45997 31.6289 5.57997 32.1969 5.81997C32.7649 6.05197 33.2449 6.37997 33.6369 6.80397C34.0289 7.21997 34.3249 7.71997 34.5249 8.30397C34.7329 8.88797 34.8369 9.52797 34.8369 10.224V18H33.4929C33.2129 18 32.9969 17.96 32.8449 17.88C32.6929 17.792 32.5729 17.62 32.4849 17.364L32.2209 16.476C31.9089 16.756 31.6049 17.004 31.3089 17.22C31.0129 17.428 30.7049 17.604 30.3849 17.748C30.0649 17.892 29.7209 18 29.3529 18.072C28.9929 18.152 28.5929 18.192 28.1529 18.192C27.6329 18.192 27.1529 18.124 26.7129 17.988C26.2729 17.844 25.8929 17.632 25.5729 17.352C25.2529 17.072 25.0049 16.724 24.8289 16.308C24.6529 15.892 24.5649 15.408 24.5649 14.856C24.5649 14.544 24.6169 14.236 24.7209 13.932C24.8249 13.62 24.9929 13.324 25.2249 13.044C25.4649 12.764 25.7729 12.5 26.1489 12.252C26.5249 12.004 26.9849 11.788 27.5289 11.604C28.0809 11.42 28.7209 11.272 29.4489 11.16C30.1769 11.04 31.0089 10.968 31.9449 10.944V10.224C31.9449 9.39997 31.7689 8.79197 31.4169 8.39997C31.0649 7.99997 30.5569 7.79997 29.8929 7.79997C29.4129 7.79997 29.0129 7.85597 28.6929 7.96797C28.3809 8.07997 28.1049 8.20797 27.8649 8.35197C27.6249 8.48797 27.4049 8.61197 27.2049 8.72397C27.0129 8.83597 26.7969 8.89197 26.5569 8.89197C26.3489 8.89197 26.1729 8.83997 26.0289 8.73597C25.8849 8.62397 25.7689 8.49597 25.6809 8.35197L25.1529 7.40397Z" fill="#1F3965"/>
<path d="M46.4484 8.29197C46.3604 8.40397 46.2724 8.49197 46.1844 8.55597C46.1044 8.61997 45.9844 8.65197 45.8244 8.65197C45.6724 8.65197 45.5244 8.60797 45.3804 8.51997C45.2364 8.42397 45.0644 8.31997 44.8644 8.20797C44.6644 8.08797 44.4244 7.98397 44.1444 7.89597C43.8724 7.79997 43.5324 7.75197 43.1244 7.75197C42.6044 7.75197 42.1484 7.84797 41.7564 8.03997C41.3644 8.22397 41.0364 8.49197 40.7724 8.84397C40.5164 9.19597 40.3244 9.62397 40.1964 10.128C40.0684 10.624 40.0044 11.188 40.0044 11.82C40.0044 12.476 40.0724 13.06 40.2084 13.572C40.3524 14.084 40.5564 14.516 40.8204 14.868C41.0844 15.212 41.4044 15.476 41.7804 15.66C42.1564 15.836 42.5804 15.924 43.0524 15.924C43.5244 15.924 43.9044 15.868 44.1924 15.756C44.4884 15.636 44.7364 15.508 44.9364 15.372C45.1364 15.228 45.3084 15.1 45.4524 14.988C45.6044 14.868 45.7724 14.808 45.9564 14.808C46.1964 14.808 46.3764 14.9 46.4964 15.084L47.3484 16.164C47.0204 16.548 46.6644 16.872 46.2804 17.136C45.8964 17.392 45.4964 17.6 45.0804 17.76C44.6724 17.912 44.2484 18.02 43.8084 18.084C43.3764 18.148 42.9444 18.18 42.5124 18.18C41.7524 18.18 41.0364 18.04 40.3644 17.76C39.6924 17.472 39.1044 17.056 38.6004 16.512C38.0964 15.968 37.6964 15.304 37.4004 14.52C37.1124 13.728 36.9684 12.828 36.9684 11.82C36.9684 10.916 37.0964 10.08 37.3524 9.31197C37.6164 8.53597 38.0004 7.86797 38.5044 7.30797C39.0084 6.73997 39.6324 6.29597 40.3764 5.97597C41.1204 5.65597 41.9764 5.49597 42.9444 5.49597C43.8644 5.49597 44.6684 5.64397 45.3564 5.93997C46.0524 6.23597 46.6764 6.65997 47.2284 7.21197L46.4484 8.29197Z" fill="#1F3965"/>
<path d="M52.1705 7.00797C52.6505 6.55997 53.1785 6.19597 53.7545 5.91597C54.3305 5.63597 55.0065 5.49597 55.7825 5.49597C56.4545 5.49597 57.0505 5.61197 57.5705 5.84397C58.0905 6.06797 58.5225 6.38797 58.8665 6.80397C59.2185 7.21197 59.4825 7.70397 59.6585 8.27997C59.8425 8.84797 59.9345 9.47597 59.9345 10.164V18H56.9705V10.164C56.9705 9.41197 56.7985 8.83197 56.4545 8.42397C56.1105 8.00797 55.5865 7.79997 54.8825 7.79997C54.3705 7.79997 53.8905 7.91597 53.4425 8.14797C52.9945 8.37997 52.5705 8.69597 52.1705 9.09597V18H49.2065V0.167969H52.1705V7.00797Z" fill="#1F3965"/>
<path d="M70.2654 8.08797C70.1854 8.21597 70.1014 8.30797 70.0134 8.36397C69.9254 8.41197 69.8134 8.43597 69.6774 8.43597C69.5334 8.43597 69.3774 8.39597 69.2094 8.31597C69.0494 8.23597 68.8614 8.14797 68.6454 8.05197C68.4294 7.94797 68.1814 7.85597 67.9014 7.77597C67.6294 7.69597 67.3054 7.65597 66.9294 7.65597C66.3454 7.65597 65.8854 7.77997 65.5494 8.02797C65.2214 8.27597 65.0574 8.59997 65.0574 8.99997C65.0574 9.26397 65.1414 9.48797 65.3094 9.67197C65.4854 9.84797 65.7134 10.004 65.9934 10.14C66.2814 10.276 66.6054 10.4 66.9654 10.512C67.3254 10.616 67.6894 10.732 68.0574 10.86C68.4334 10.988 68.8014 11.136 69.1614 11.304C69.5214 11.464 69.8414 11.672 70.1214 11.928C70.4094 12.176 70.6374 12.476 70.8054 12.828C70.9814 13.18 71.0694 13.604 71.0694 14.1C71.0694 14.692 70.9614 15.24 70.7454 15.744C70.5374 16.24 70.2254 16.672 69.8094 17.04C69.3934 17.4 68.8774 17.684 68.2614 17.892C67.6534 18.092 66.9494 18.192 66.1494 18.192C65.7254 18.192 65.3094 18.152 64.9014 18.072C64.5014 18 64.1134 17.896 63.7374 17.76C63.3694 17.624 63.0254 17.464 62.7054 17.28C62.3934 17.096 62.1174 16.896 61.8774 16.68L62.5614 15.552C62.6494 15.416 62.7534 15.312 62.8734 15.24C62.9934 15.168 63.1454 15.132 63.3294 15.132C63.5134 15.132 63.6854 15.184 63.8454 15.288C64.0134 15.392 64.2054 15.504 64.4214 15.624C64.6374 15.744 64.8894 15.856 65.1774 15.96C65.4734 16.064 65.8454 16.116 66.2934 16.116C66.6454 16.116 66.9454 16.076 67.1934 15.996C67.4494 15.908 67.6574 15.796 67.8174 15.66C67.9854 15.524 68.1054 15.368 68.1774 15.192C68.2574 15.008 68.2974 14.82 68.2974 14.628C68.2974 14.34 68.2094 14.104 68.0334 13.92C67.8654 13.736 67.6374 13.576 67.3494 13.44C67.0694 13.304 66.7454 13.184 66.3774 13.08C66.0174 12.968 65.6454 12.848 65.2614 12.72C64.8854 12.592 64.5134 12.444 64.1454 12.276C63.7854 12.1 63.4614 11.88 63.1734 11.616C62.8934 11.352 62.6654 11.028 62.4894 10.644C62.3214 10.26 62.2374 9.79597 62.2374 9.25197C62.2374 8.74797 62.3374 8.26797 62.5374 7.81197C62.7374 7.35597 63.0294 6.95997 63.4134 6.62397C63.8054 6.27997 64.2894 6.00797 64.8654 5.80797C65.4494 5.59997 66.1214 5.49597 66.8814 5.49597C67.7294 5.49597 68.5014 5.63597 69.1974 5.91597C69.8934 6.19597 70.4734 6.56397 70.9374 7.01997L70.2654 8.08797Z" fill="#1F3965"/>
<path d="M77.4043 18.192C76.3323 18.192 75.5083 17.892 74.9323 17.292C74.3643 16.684 74.0803 15.848 74.0803 14.784V7.90797H72.8203C72.6603 7.90797 72.5243 7.85597 72.4123 7.75197C72.3003 7.64797 72.2443 7.49197 72.2443 7.28397V6.10797L74.2243 5.78397L74.8483 2.42397C74.8883 2.26397 74.9643 2.13997 75.0763 2.05197C75.1883 1.96397 75.3323 1.91997 75.5083 1.91997H77.0443V5.79597H80.3323V7.90797H77.0443V14.58C77.0443 14.964 77.1363 15.264 77.3203 15.48C77.5123 15.696 77.7723 15.804 78.1003 15.804C78.2843 15.804 78.4363 15.784 78.5563 15.744C78.6843 15.696 78.7923 15.648 78.8803 15.6C78.9763 15.552 79.0603 15.508 79.1323 15.468C79.2043 15.42 79.2763 15.396 79.3483 15.396C79.4363 15.396 79.5083 15.42 79.5643 15.468C79.6203 15.508 79.6803 15.572 79.7443 15.66L80.6323 17.1C80.2003 17.46 79.7043 17.732 79.1443 17.916C78.5843 18.1 78.0043 18.192 77.4043 18.192Z" fill="#1F3965"/>
<path d="M88.734 12.744C87.878 12.784 87.158 12.86 86.574 12.972C85.99 13.076 85.522 13.212 85.17 13.38C84.818 13.548 84.566 13.744 84.414 13.968C84.262 14.192 84.186 14.436 84.186 14.7C84.186 15.22 84.338 15.592 84.642 15.816C84.954 16.04 85.358 16.152 85.854 16.152C86.462 16.152 86.986 16.044 87.426 15.828C87.874 15.604 88.31 15.268 88.734 14.82V12.744ZM81.942 7.40397C83.358 6.10797 85.062 5.45997 87.054 5.45997C87.774 5.45997 88.418 5.57997 88.986 5.81997C89.554 6.05197 90.034 6.37997 90.426 6.80397C90.818 7.21997 91.114 7.71997 91.314 8.30397C91.522 8.88797 91.626 9.52797 91.626 10.224V18H90.282C90.002 18 89.786 17.96 89.634 17.88C89.482 17.792 89.362 17.62 89.274 17.364L89.01 16.476C88.698 16.756 88.394 17.004 88.098 17.22C87.802 17.428 87.494 17.604 87.174 17.748C86.854 17.892 86.51 18 86.142 18.072C85.782 18.152 85.382 18.192 84.942 18.192C84.422 18.192 83.942 18.124 83.502 17.988C83.062 17.844 82.682 17.632 82.362 17.352C82.042 17.072 81.794 16.724 81.618 16.308C81.442 15.892 81.354 15.408 81.354 14.856C81.354 14.544 81.406 14.236 81.51 13.932C81.614 13.62 81.782 13.324 82.014 13.044C82.254 12.764 82.562 12.5 82.938 12.252C83.314 12.004 83.774 11.788 84.318 11.604C84.87 11.42 85.51 11.272 86.238 11.16C86.966 11.04 87.798 10.968 88.734 10.944V10.224C88.734 9.39997 88.558 8.79197 88.206 8.39997C87.854 7.99997 87.346 7.79997 86.682 7.79997C86.202 7.79997 85.802 7.85597 85.482 7.96797C85.17 8.07997 84.894 8.20797 84.654 8.35197C84.414 8.48797 84.194 8.61197 83.994 8.72397C83.802 8.83597 83.586 8.89197 83.346 8.89197C83.138 8.89197 82.962 8.83997 82.818 8.73597C82.674 8.62397 82.558 8.49597 82.47 8.35197L81.942 7.40397Z" fill="#1F3965"/>
<path d="M103.237 8.29197C103.149 8.40397 103.061 8.49197 102.973 8.55597C102.893 8.61997 102.773 8.65197 102.613 8.65197C102.461 8.65197 102.313 8.60797 102.169 8.51997C102.025 8.42397 101.853 8.31997 101.653 8.20797C101.453 8.08797 101.213 7.98397 100.933 7.89597C100.661 7.79997 100.321 7.75197 99.9135 7.75197C99.3935 7.75197 98.9375 7.84797 98.5455 8.03997C98.1535 8.22397 97.8255 8.49197 97.5615 8.84397C97.3055 9.19597 97.1135 9.62397 96.9855 10.128C96.8575 10.624 96.7935 11.188 96.7935 11.82C96.7935 12.476 96.8615 13.06 96.9975 13.572C97.1415 14.084 97.3455 14.516 97.6095 14.868C97.8735 15.212 98.1935 15.476 98.5695 15.66C98.9455 15.836 99.3695 15.924 99.8415 15.924C100.313 15.924 100.693 15.868 100.981 15.756C101.277 15.636 101.525 15.508 101.725 15.372C101.925 15.228 102.097 15.1 102.241 14.988C102.393 14.868 102.561 14.808 102.745 14.808C102.985 14.808 103.165 14.9 103.285 15.084L104.137 16.164C103.809 16.548 103.453 16.872 103.069 17.136C102.685 17.392 102.285 17.6 101.869 17.76C101.461 17.912 101.037 18.02 100.597 18.084C100.165 18.148 99.7335 18.18 99.3015 18.18C98.5415 18.18 97.8255 18.04 97.1535 17.76C96.4815 17.472 95.8935 17.056 95.3895 16.512C94.8855 15.968 94.4855 15.304 94.1895 14.52C93.9015 13.728 93.7575 12.828 93.7575 11.82C93.7575 10.916 93.8855 10.08 94.1415 9.31197C94.4055 8.53597 94.7895 7.86797 95.2935 7.30797C95.7975 6.73997 96.4215 6.29597 97.1655 5.97597C97.9095 5.65597 98.7655 5.49597 99.7335 5.49597C100.653 5.49597 101.457 5.64397 102.145 5.93997C102.841 6.23597 103.465 6.65997 104.017 7.21197L103.237 8.29197Z" fill="#1F3965"/>
<path d="M108.96 0.167969V10.38H109.512C109.712 10.38 109.868 10.356 109.98 10.308C110.1 10.252 110.22 10.144 110.34 9.98397L113.4 6.20397C113.528 6.03597 113.668 5.90797 113.82 5.81997C113.98 5.73197 114.184 5.68797 114.432 5.68797H117.144L113.316 10.26C113.044 10.62 112.748 10.896 112.428 11.088C112.596 11.208 112.744 11.348 112.872 11.508C113.008 11.668 113.136 11.84 113.256 12.024L117.36 18H114.684C114.452 18 114.252 17.964 114.084 17.892C113.916 17.812 113.776 17.672 113.664 17.472L110.52 12.804C110.408 12.62 110.292 12.5 110.172 12.444C110.052 12.388 109.872 12.36 109.632 12.36H108.96V18H105.996V0.167969H108.96Z" fill="#1F3965"/>
<path d="M36.2494 35.336C36.4444 35.5873 36.6567 35.765 36.8864 35.869C37.1204 35.9686 37.3739 36.0185 37.6469 36.0185C38.1972 36.0185 38.6262 35.8191 38.9339 35.4205C39.2415 35.0218 39.3954 34.4043 39.3954 33.568C39.3954 32.8053 39.261 32.2485 38.9924 31.8975C38.728 31.5465 38.3489 31.371 37.8549 31.371C37.5125 31.371 37.2135 31.449 36.9579 31.605C36.7065 31.7566 36.4704 31.9755 36.2494 32.2615V35.336ZM36.2494 31.2475C36.5224 30.9485 36.8279 30.7101 37.1659 30.5325C37.5039 30.3548 37.8895 30.266 38.3229 30.266C38.7085 30.266 39.0552 30.3418 39.3629 30.4935C39.6749 30.6408 39.9392 30.8553 40.1559 31.137C40.3725 31.4186 40.5394 31.761 40.6564 32.164C40.7734 32.5626 40.8319 33.0133 40.8319 33.516C40.8319 34.0533 40.7647 34.543 40.6304 34.985C40.5004 35.4226 40.3119 35.7996 40.0648 36.116C39.8178 36.428 39.5189 36.6706 39.1679 36.844C38.8168 37.013 38.4247 37.0975 37.9914 37.0975C37.779 37.0975 37.5862 37.0758 37.4129 37.0325C37.2395 36.9935 37.0792 36.935 36.9319 36.857C36.7845 36.779 36.648 36.6858 36.5224 36.5775C36.401 36.4691 36.284 36.3456 36.1714 36.207L36.1129 36.7205C36.0912 36.8201 36.0522 36.8916 35.9959 36.935C35.9395 36.9783 35.8615 37 35.7619 37H34.8519V27.38H36.2494V31.2475Z" fill="#959595"/>
<path d="M47.8945 30.37L44.2415 38.885C44.1938 38.9846 44.1353 39.0626 44.066 39.119C44.001 39.1753 43.8992 39.2035 43.7605 39.2035H42.727L43.949 36.5515L41.245 30.37H42.4605C42.5775 30.37 42.6663 30.3981 42.727 30.4545C42.792 30.5065 42.8397 30.5693 42.87 30.643L44.4495 34.4065C44.4885 34.5148 44.5232 34.6231 44.5535 34.7315C44.5882 34.8355 44.6207 34.9438 44.651 35.0565C44.6857 34.9438 44.7203 34.8333 44.755 34.725C44.7897 34.6166 44.8287 34.5083 44.872 34.4L46.3865 30.643C46.4168 30.565 46.4667 30.5 46.536 30.448C46.6097 30.396 46.6898 30.37 46.7765 30.37H47.8945Z" fill="#959595"/>
<path fill-rule="evenodd" clip-rule="evenodd" d="M63.2995 27.2042C63.2987 27.1711 63.2898 27.1386 63.2736 27.1097C63.2575 27.0807 63.2345 27.0562 63.2067 27.0381C63.1789 27.02 63.1472 27.0089 63.1142 27.0058C63.0812 27.0028 63.0479 27.0077 63.0173 27.0204L60.206 28.2228C60.1695 28.2384 60.1385 28.2643 60.1166 28.2973C60.0947 28.3304 60.0829 28.3691 60.0827 28.4087V28.8412C60.0827 28.8683 60.0895 28.895 60.1023 28.9189C60.1151 28.9428 60.1336 28.9631 60.1562 28.9781C60.1788 28.9931 60.2047 29.0022 60.2317 29.0048C60.2587 29.0073 60.2859 29.0031 60.3109 28.9926L63.1557 27.7805C63.2004 27.7615 63.2386 27.7298 63.2653 27.6892C63.2921 27.6486 63.3062 27.601 63.306 27.5524L63.2995 27.2042Z" fill="#1DA1F2"/>
<path fill-rule="evenodd" clip-rule="evenodd" d="M59.5633 28.2229L56.7423 27.0184C56.7175 27.0068 56.6907 27.0005 56.6633 27C56.6246 27.0002 56.5869 27.0122 56.5552 27.0346C56.5267 27.0522 56.5032 27.0769 56.4871 27.1062C56.471 27.1356 56.4628 27.1687 56.4633 27.2022V27.5265C56.4633 27.58 56.4789 27.6322 56.5083 27.6768C56.5377 27.7214 56.5796 27.7564 56.6287 27.7774L59.4714 28.9917C59.4951 29.0014 59.5208 29.0051 59.5463 29.0026C59.5718 29.0001 59.5963 28.9913 59.6177 28.9771C59.639 28.963 59.6566 28.9437 59.6687 28.9212C59.6809 28.8987 59.6874 28.8735 59.6876 28.8478V28.4089C59.6875 28.3691 59.6756 28.3302 59.6535 28.2971C59.6314 28.264 59.6 28.2382 59.5633 28.2229Z" fill="#1DA1F2"/>
<path fill-rule="evenodd" clip-rule="evenodd" d="M60.208 29.4781C60.1718 29.4932 60.1409 29.5188 60.1194 29.5515C60.0978 29.5843 60.0865 29.6227 60.0869 29.6619V30.1377C60.0878 30.1546 60.0926 30.1711 60.1009 30.1858C60.1093 30.2005 60.121 30.213 60.1351 30.2224C60.1492 30.2317 60.1653 30.2377 60.1821 30.2397C60.1989 30.2417 60.2159 30.2397 60.2318 30.2339L63.3048 28.9191L63.508 28.8337L63.7102 28.7472L64.3374 28.4736C64.3849 28.4533 64.4254 28.4194 64.4537 28.3761C64.482 28.3328 64.4968 28.2821 64.4963 28.2304V27.9492C64.4968 27.9161 64.4889 27.8834 64.4734 27.8541C64.4579 27.8248 64.4353 27.7999 64.4077 27.7816C64.3756 27.7601 64.3381 27.7481 64.2995 27.747C64.2715 27.7471 64.2438 27.7533 64.2184 27.7654L63.7081 27.9817L63.5059 28.0671L60.208 29.4781Z" fill="#1DA1F2"/>
<path fill-rule="evenodd" clip-rule="evenodd" d="M59.564 29.4782L56.4608 28.1493L56.2586 28.065L56.0564 27.9774L55.5439 27.7612C55.5188 27.751 55.492 27.7455 55.465 27.7449C55.4386 27.7447 55.4124 27.7496 55.388 27.7594C55.3635 27.7693 55.3413 27.7839 55.3225 27.8024C55.3037 27.8209 55.2887 27.8429 55.2785 27.8672C55.2682 27.8915 55.2629 27.9175 55.2628 27.9439V28.2575C55.2625 28.3 55.2748 28.3416 55.298 28.3772C55.3213 28.4128 55.3545 28.4407 55.3936 28.4575L56.0532 28.7386L56.2554 28.8262L56.4586 28.9127L59.5164 30.2189C59.5347 30.2266 59.5546 30.2297 59.5744 30.228C59.5942 30.2264 59.6133 30.22 59.6301 30.2094C59.6468 30.1988 59.6608 30.1842 59.6708 30.1671C59.6807 30.1499 59.6864 30.1306 59.6873 30.1107V29.6631C59.6876 29.6235 59.676 29.5847 59.6541 29.5517C59.6321 29.5188 59.6007 29.4931 59.564 29.4782Z" fill="#1DA1F2"/>
<path fill-rule="evenodd" clip-rule="evenodd" d="M65.7376 28.624C65.7382 28.5904 65.7301 28.5573 65.7142 28.5278C65.6983 28.4982 65.6751 28.4733 65.6468 28.4553C65.6149 28.4334 65.5773 28.4214 65.5386 28.4207C65.5113 28.4212 65.4844 28.4275 65.4597 28.4391L64.9029 28.6759L64.7007 28.7635L63.5091 29.2727L63.3058 29.3603L60.2134 30.6816C60.1768 30.6967 60.1455 30.7223 60.1236 30.7552C60.1016 30.7882 60.09 30.8269 60.0901 30.8665V32.8495C60.0907 32.8442 60.0907 32.8387 60.0901 32.8333V35.7852C60.0896 35.8016 60.0914 35.818 60.0956 35.8338V38.7987C60.0948 38.833 60.1033 38.8669 60.1203 38.8968C60.1372 38.9267 60.1619 38.9514 60.1918 38.9684C60.2205 38.987 60.2535 38.9977 60.2877 38.9996C60.3218 39.0015 60.3558 38.9945 60.3864 38.9792L65.6716 36.3031C65.7048 36.2862 65.7326 36.2603 65.7517 36.2284C65.7708 36.1964 65.7806 36.1598 65.7798 36.1225L65.7376 28.624Z" fill="#1DA1F2"/>
<path fill-rule="evenodd" clip-rule="evenodd" d="M59.5635 30.6815L56.2548 29.2651L56.0515 29.1796L55.2622 28.8423L55.06 28.7547L54.3031 28.4314C54.2774 28.4208 54.2499 28.4153 54.222 28.4152C54.1835 28.4158 54.146 28.4275 54.1139 28.4487C54.086 28.4666 54.063 28.4912 54.0471 28.5203C54.0312 28.5494 54.023 28.5821 54.0231 28.6152L54.0004 36.1224C54 36.1596 54.0098 36.1961 54.0289 36.228C54.048 36.2599 54.0755 36.2858 54.1085 36.303L59.3937 38.9791C59.4247 38.9941 59.4588 39.0011 59.4932 38.9996C59.5275 38.9981 59.561 38.9881 59.5905 38.9705C59.6201 38.9526 59.6447 38.9274 59.6617 38.8973C59.6788 38.8672 59.6878 38.8332 59.6878 38.7986V30.8664C59.6879 30.8267 59.6761 30.7879 59.654 30.7549C59.6318 30.722 59.6003 30.6964 59.5635 30.6815Z" fill="#1DA1F2"/>
<path fill-rule="evenodd" clip-rule="evenodd" d="M58.6564 35.8759C58.6227 35.8958 58.5844 35.9063 58.5453 35.9066C58.5062 35.9068 58.4677 35.8967 58.4338 35.8772C58.3998 35.8578 58.3717 35.8297 58.3521 35.7959C58.3325 35.7621 58.3222 35.7236 58.3223 35.6845V31.7444C58.3223 31.7054 58.3325 31.6671 58.352 31.6333C58.3714 31.5995 58.3994 31.5714 58.4331 31.5518C58.4668 31.5322 58.5051 31.5218 58.5441 31.5216C58.5831 31.5215 58.6214 31.5316 58.6553 31.5509L62.0699 33.5166C62.1036 33.5362 62.1315 33.5643 62.1509 33.5981C62.1703 33.6318 62.1806 33.6701 62.1806 33.7091C62.1806 33.748 62.1703 33.7863 62.1509 33.8201C62.1315 33.8538 62.1036 33.8819 62.0699 33.9015L58.6564 35.8759Z" fill="white"/>
<path d="M74.9899 30.1324H72.6222V36.7847H71.1614V30.1324H68.7937V28.9323H74.9899V30.1324Z" fill="#1F3965"/>
<path d="M78.0906 33.3581C78.0906 33.1843 78.0652 33.0214 78.0145 32.8694C77.9675 32.7137 77.8951 32.5779 77.7973 32.4621C77.6996 32.3462 77.5747 32.2557 77.4226 32.1906C77.2742 32.1218 77.1004 32.0874 76.9013 32.0874C76.5139 32.0874 76.208 32.1978 75.9835 32.4186C75.7627 32.6395 75.6215 32.9526 75.56 33.3581H78.0906ZM75.5328 34.1673C75.5545 34.4533 75.6052 34.7012 75.6849 34.9112C75.7645 35.1176 75.8695 35.2896 75.9998 35.4271C76.1302 35.5611 76.284 35.6624 76.4614 35.7312C76.6424 35.7964 76.8416 35.829 77.0588 35.829C77.276 35.829 77.4624 35.8036 77.6181 35.7529C77.7774 35.7023 77.915 35.6462 78.0308 35.5846C78.1503 35.5231 78.2535 35.4669 78.3404 35.4163C78.4309 35.3656 78.5178 35.3402 78.601 35.3402C78.7133 35.3402 78.7965 35.3819 78.8508 35.4651L79.2364 35.9539C79.088 36.1277 78.9214 36.2743 78.7368 36.3937C78.5522 36.5096 78.3585 36.6037 78.1557 36.6761C77.9566 36.7449 77.7521 36.7938 77.5421 36.8228C77.3357 36.8517 77.1348 36.8662 76.9393 36.8662C76.5519 36.8662 76.1917 36.8028 75.8586 36.6761C75.5256 36.5458 75.2359 36.3557 74.9898 36.1059C74.7436 35.8525 74.5499 35.5412 74.4087 35.1719C74.2675 34.799 74.1969 34.3682 74.1969 33.8794C74.1969 33.4993 74.2585 33.1427 74.3816 32.8096C74.5046 32.4729 74.6802 32.1815 74.9083 31.9353C75.14 31.6855 75.4206 31.4882 75.75 31.3434C76.0831 31.1986 76.4578 31.1262 76.8741 31.1262C77.2253 31.1262 77.5493 31.1823 77.8462 31.2945C78.1431 31.4068 78.3983 31.5715 78.6119 31.7887C78.8255 32.0023 78.992 32.2666 79.1115 32.5816C79.2346 32.8929 79.2961 33.2495 79.2961 33.6514C79.2961 33.8541 79.2744 33.9917 79.231 34.0641C79.1875 34.1329 79.1043 34.1673 78.9812 34.1673H75.5328Z" fill="#1F3965"/>
<path d="M83.246 34.4062C82.8587 34.4243 82.5328 34.4587 82.2686 34.5094C82.0043 34.5564 81.7925 34.618 81.6332 34.694C81.4739 34.77 81.3599 34.8587 81.2911 34.9601C81.2223 35.0615 81.1879 35.1719 81.1879 35.2914C81.1879 35.5267 81.2567 35.695 81.3942 35.7964C81.5354 35.8978 81.7183 35.9484 81.9427 35.9484C82.2179 35.9484 82.455 35.8996 82.6541 35.8018C82.8568 35.7005 83.0542 35.5484 83.246 35.3457V34.4062ZM80.1724 31.9896C80.8132 31.4031 81.5843 31.1099 82.4858 31.1099C82.8116 31.1099 83.103 31.1642 83.3601 31.2728C83.6171 31.3778 83.8343 31.5262 84.0117 31.7181C84.1891 31.9064 84.3231 32.1326 84.4136 32.3969C84.5077 32.6612 84.5548 32.9508 84.5548 33.2658V36.7847H83.9466C83.8199 36.7847 83.7221 36.7666 83.6533 36.7304C83.5845 36.6906 83.5302 36.6128 83.4904 36.4969L83.3709 36.0951C83.2297 36.2218 83.0922 36.334 82.9582 36.4318C82.8243 36.5259 82.6849 36.6055 82.5401 36.6707C82.3953 36.7359 82.2396 36.7847 82.0731 36.8173C81.9101 36.8535 81.7291 36.8716 81.53 36.8716C81.2947 36.8716 81.0775 36.8409 80.8783 36.7793C80.6792 36.7141 80.5073 36.6182 80.3625 36.4915C80.2176 36.3648 80.1054 36.2073 80.0258 36.019C79.9461 35.8308 79.9063 35.6118 79.9063 35.362C79.9063 35.2208 79.9298 35.0814 79.9769 34.9438C80.024 34.8026 80.1 34.6687 80.205 34.542C80.3136 34.4152 80.453 34.2958 80.6231 34.1835C80.7933 34.0713 81.0014 33.9736 81.2476 33.8903C81.4974 33.807 81.7871 33.7401 82.1165 33.6894C82.4459 33.6351 82.8225 33.6025 83.246 33.5916V33.2658C83.246 32.8929 83.1664 32.6178 83.0071 32.4404C82.8478 32.2593 82.6179 32.1688 82.3174 32.1688C82.1002 32.1688 81.9192 32.1942 81.7744 32.2449C81.6332 32.2956 81.5083 32.3535 81.3997 32.4186C81.2911 32.4802 81.1915 32.5363 81.101 32.587C81.0141 32.6377 80.9164 32.663 80.8078 32.663C80.7136 32.663 80.634 32.6395 80.5688 32.5924C80.5036 32.5417 80.4512 32.4838 80.4113 32.4186L80.1724 31.9896Z" fill="#1F3965"/>
<path d="M89.8094 32.3915C89.7696 32.4422 89.7298 32.482 89.69 32.511C89.6538 32.5399 89.5995 32.5544 89.5271 32.5544C89.4583 32.5544 89.3913 32.5345 89.3261 32.4947C89.261 32.4512 89.1831 32.4042 89.0926 32.3535C89.0021 32.2992 88.8935 32.2521 88.7668 32.2123C88.6437 32.1688 88.4898 32.1471 88.3052 32.1471C88.0699 32.1471 87.8635 32.1906 87.6861 32.2774C87.5087 32.3607 87.3603 32.482 87.2408 32.6413C87.125 32.8006 87.0381 32.9943 86.9802 33.2224C86.9222 33.4468 86.8933 33.702 86.8933 33.988C86.8933 34.2849 86.924 34.5492 86.9856 34.7809C87.0508 35.0126 87.1431 35.2081 87.2626 35.3674C87.382 35.5231 87.5268 35.6425 87.697 35.7258C87.8671 35.8054 88.059 35.8453 88.2726 35.8453C88.4862 35.8453 88.6582 35.8199 88.7885 35.7692C88.9225 35.7149 89.0347 35.657 89.1252 35.5955C89.2157 35.5303 89.2935 35.4724 89.3587 35.4217C89.4275 35.3674 89.5035 35.3402 89.5868 35.3402C89.6954 35.3402 89.7769 35.3819 89.8312 35.4651L90.2167 35.9539C90.0683 36.1277 89.9072 36.2743 89.7334 36.3937C89.5596 36.5096 89.3786 36.6037 89.1904 36.6761C89.0057 36.7449 88.8139 36.7938 88.6147 36.8228C88.4192 36.8517 88.2237 36.8662 88.0282 36.8662C87.6843 36.8662 87.3603 36.8028 87.0562 36.6761C86.7521 36.5458 86.486 36.3575 86.2579 36.1114C86.0298 35.8652 85.8488 35.5647 85.7149 35.2099C85.5845 34.8515 85.5194 34.4442 85.5194 33.988C85.5194 33.579 85.5773 33.2006 85.6931 32.8531C85.8126 32.5019 85.9864 32.1996 86.2145 31.9462C86.4426 31.6891 86.7249 31.4882 87.0616 31.3434C87.3983 31.1986 87.7857 31.1262 88.2237 31.1262C88.6401 31.1262 89.0039 31.1932 89.3153 31.3271C89.6302 31.4611 89.9126 31.6529 90.1624 31.9027L89.8094 32.3915Z" fill="#1F3965"/>
<path d="M92.3989 31.8104C92.6161 31.6077 92.8551 31.443 93.1157 31.3163C93.3764 31.1895 93.6823 31.1262 94.0335 31.1262C94.3376 31.1262 94.6073 31.1787 94.8426 31.2837C95.078 31.385 95.2735 31.5299 95.4291 31.7181C95.5884 31.9027 95.7079 32.1254 95.7875 32.3861C95.8708 32.6431 95.9124 32.9273 95.9124 33.2386V36.7847H94.5711V33.2386C94.5711 32.8983 94.4933 32.6359 94.3376 32.4512C94.1819 32.263 93.9448 32.1688 93.6262 32.1688C93.3945 32.1688 93.1773 32.2213 92.9746 32.3263C92.7718 32.4313 92.5799 32.5743 92.3989 32.7553V36.7847H91.0576V28.7151H92.3989V31.8104Z" fill="#1F3965"/>
<path d="M97.1881 36.7847V31.2131H98.0081C98.1819 31.2131 98.2959 31.2945 98.3502 31.4574L98.4371 31.8702C98.5349 31.7616 98.6362 31.662 98.7412 31.5715C98.8498 31.481 98.9639 31.4031 99.0833 31.338C99.2064 31.2728 99.3367 31.2221 99.4743 31.1859C99.6155 31.1461 99.7694 31.1262 99.9359 31.1262C100.287 31.1262 100.575 31.2221 100.799 31.414C101.027 31.6023 101.198 31.8539 101.31 32.1688C101.397 31.9842 101.505 31.8267 101.636 31.6964C101.766 31.5624 101.909 31.4538 102.065 31.3706C102.22 31.2873 102.385 31.2257 102.559 31.1859C102.736 31.1461 102.914 31.1262 103.091 31.1262C103.399 31.1262 103.672 31.1733 103.911 31.2674C104.15 31.3615 104.351 31.4991 104.514 31.6801C104.677 31.8611 104.8 32.082 104.883 32.3426C104.97 32.6033 105.013 32.902 105.013 33.2386V36.7847H103.672V33.2386C103.672 32.8839 103.594 32.6178 103.439 32.4404C103.283 32.2593 103.055 32.1688 102.754 32.1688C102.617 32.1688 102.488 32.1924 102.369 32.2394C102.253 32.2865 102.15 32.3553 102.059 32.4458C101.972 32.5327 101.904 32.6431 101.853 32.7771C101.802 32.911 101.777 33.0649 101.777 33.2386V36.7847H100.43V33.2386C100.43 32.8657 100.354 32.5942 100.202 32.4241C100.054 32.2539 99.8345 32.1688 99.5449 32.1688C99.3494 32.1688 99.1666 32.2177 98.9964 32.3155C98.8299 32.4096 98.6742 32.5399 98.5294 32.7065V36.7847H97.1881Z" fill="#1F3965"/>
<path d="M107.679 31.2131V36.7847H106.332V31.2131H107.679ZM107.863 29.5894C107.863 29.7052 107.84 29.8138 107.793 29.9152C107.746 30.0166 107.682 30.1053 107.603 30.1813C107.527 30.2573 107.436 30.3189 107.331 30.3659C107.226 30.4094 107.114 30.4311 106.994 30.4311C106.878 30.4311 106.768 30.4094 106.663 30.3659C106.562 30.3189 106.473 30.2573 106.397 30.1813C106.321 30.1053 106.259 30.0166 106.212 29.9152C106.169 29.8138 106.147 29.7052 106.147 29.5894C106.147 29.4699 106.169 29.3577 106.212 29.2527C106.259 29.1477 106.321 29.0572 106.397 28.9812C106.473 28.9051 106.562 28.8454 106.663 28.8019C106.768 28.7549 106.878 28.7313 106.994 28.7313C107.114 28.7313 107.226 28.7549 107.331 28.8019C107.436 28.8454 107.527 28.9051 107.603 28.9812C107.682 29.0572 107.746 29.1477 107.793 29.2527C107.84 29.3577 107.863 29.4699 107.863 29.5894Z" fill="#1F3965"/>
<path d="M110.3 31.8973C110.413 31.7851 110.53 31.6819 110.653 31.5878C110.78 31.49 110.912 31.4086 111.05 31.3434C111.191 31.2746 111.341 31.2221 111.501 31.1859C111.66 31.1461 111.834 31.1262 112.022 31.1262C112.326 31.1262 112.596 31.1787 112.831 31.2837C113.066 31.385 113.262 31.5299 113.418 31.7181C113.577 31.9027 113.696 32.1254 113.776 32.3861C113.859 32.6431 113.901 32.9273 113.901 33.2386V36.7847H112.56V33.2386C112.56 32.8983 112.482 32.6359 112.326 32.4512C112.17 32.263 111.933 32.1688 111.615 32.1688C111.383 32.1688 111.166 32.2213 110.963 32.3263C110.76 32.4313 110.568 32.5743 110.387 32.7553V36.7847H109.046V31.2131H109.866C110.04 31.2131 110.154 31.2945 110.208 31.4574L110.3 31.8973Z" fill="#1F3965"/>
<path d="M116.959 36.8716C116.474 36.8716 116.101 36.7359 115.841 36.4643C115.584 36.1892 115.455 35.8109 115.455 35.3294V32.2177H114.885C114.813 32.2177 114.751 32.1942 114.7 32.1471C114.65 32.1001 114.624 32.0295 114.624 31.9353V31.4031L115.52 31.2565L115.803 29.736C115.821 29.6636 115.855 29.6075 115.906 29.5676C115.957 29.5278 116.022 29.5079 116.101 29.5079H116.797V31.2619H118.285V32.2177H116.797V35.2371C116.797 35.4108 116.838 35.5466 116.921 35.6443C117.008 35.7421 117.126 35.791 117.274 35.791C117.358 35.791 117.427 35.7819 117.481 35.7638C117.539 35.7421 117.588 35.7204 117.627 35.6986C117.671 35.6769 117.709 35.657 117.741 35.6389C117.774 35.6172 117.807 35.6063 117.839 35.6063C117.879 35.6063 117.912 35.6172 117.937 35.6389C117.962 35.657 117.989 35.686 118.018 35.7258L118.42 36.3775C118.225 36.5404 118 36.6635 117.747 36.7467C117.493 36.83 117.231 36.8716 116.959 36.8716Z" fill="#1F3965"/>
</svg>
