<svg width="20" height="20" viewBox="0 0 20 20" fill="none" xmlns="http://www.w3.org/2000/svg">
<path d="M9.99958 19.9C12.1944 19.4806 17.5509 16.8673 18.375 9.99318L19.0075 4.71318H19.0083C19.0255 4.56708 18.949 4.427 18.8176 4.36254L10.15 0.135241C10.0555 0.0879763 9.94375 0.0879763 9.84836 0.135241L1.18146 4.36254C1.04997 4.42699 0.973491 4.56707 0.990677 4.71318L1.62318 9.99318C2.44732 16.8673 7.80474 19.4807 9.99946 19.9H9.99958ZM4.79856 9.1244C5.2291 8.69386 5.92692 8.69386 6.35746 9.1244L8.47582 11.2428L13.6414 6.07716V6.0763C13.8477 5.86919 14.1287 5.75316 14.4209 5.75316C14.7131 5.75316 14.9941 5.86917 15.2012 6.07542C15.4074 6.28253 15.5235 6.56355 15.5235 6.85573C15.5235 7.14792 15.4066 7.42894 15.1995 7.63519L9.2544 13.5803C8.82472 14.0108 8.1269 14.0108 7.69636 13.5803L4.79852 10.6833C4.36798 10.2528 4.36798 9.55494 4.79852 9.1244L4.79856 9.1244Z" fill="#36B37E"/>
</svg>
